<svg width="197" height="197" viewBox="0 0 197 197" fill="none" xmlns="http://www.w3.org/2000/svg">
<path d="M98.5 192C150.139 192 192 150.139 192 98.5C192 46.8614 150.139 5 98.5 5C46.8614 5 5 46.8614 5 98.5C5 150.139 46.8614 192 98.5 192Z" stroke="#304D6D" stroke-width="10"/>
<mask id="mask0_1_2" style="mask-type:luminance" maskUnits="userSpaceOnUse" x="39" y="32" width="119" height="119">
<path d="M158 32H39V151H158V32Z" fill="white"/>
</mask>
<g mask="url(#mask0_1_2)">
<path d="M76.2018 83.1724C63.8735 67.4477 74.3251 50.633 83.8133 45.3328C97.72 37.5644 121.07 39.9397 124.108 45.8635C126.75 51.0138 122.162 55.6286 122.162 55.6286C122.162 55.6286 129.149 57.4803 128.887 63.7659C128.627 70.0514 120.734 73.1502 120.734 73.1502C120.734 73.1502 128.863 78.1339 114.007 87.671C99.151 97.207 78.8415 86.5425 76.2018 83.1724Z" fill="#D88D48"/>
<path d="M150.379 152.221H46.7666C46.7666 152.221 49.9095 134.875 57.0298 124.891C64.1502 114.9 90.581 111.259 90.581 111.259L98.574 112.489L106.567 111.259C106.567 111.259 133.005 114.9 140.128 124.891C147.246 134.878 150.379 152.221 150.379 152.221Z" fill="#9FC9C1"/>
<path d="M124.163 114.619C122.961 123.447 115.49 128.735 108.956 131.715C102.456 134.68 95.021 134.68 88.52 131.715C81.9891 128.733 74.5206 123.444 73.314 114.619L77.9281 113.76C78.9678 121.374 85.702 125.772 91.232 128.131C96.032 130.18 101.445 130.18 106.245 128.131C111.777 125.77 118.514 121.374 119.549 113.758L124.163 114.619Z" fill="#79B2A7"/>
<path d="M119.551 113.76C118.471 121.697 111.2 126.139 105.551 128.421C101.18 130.187 96.301 130.187 91.931 128.421C86.284 126.139 79.0133 121.697 77.9307 113.76C85.995 111.106 97.129 109.962 97.322 109.945C98.238 109.883 98.741 109.876 98.741 109.876C98.741 109.876 99.244 109.883 100.16 109.945C100.353 109.959 111.486 111.104 119.551 113.76Z" fill="#F1B69A"/>
<path d="M98.4 120.067C94.522 120.067 91.382 116.93 91.382 113.063V99.68H105.42V113.063C105.42 116.93 102.277 120.067 98.4 120.067Z" fill="#F1B69A"/>
<path d="M105.42 98.133V106.349C105.42 106.349 103.064 110.44 98.4 110.44C94.653 110.44 91.382 106.894 91.382 106.894V98.133H105.42Z" fill="#150A08"/>
<path d="M78.7626 83.7483C74.9688 77.9935 70.5645 81.692 70.5645 85.7428C70.5645 91.609 76.9408 96.662 80.5845 92.452C84.2281 88.239 78.7626 83.7483 78.7626 83.7483Z" fill="#F1B69A"/>
<path d="M77.9328 86.4068C75.5697 82.0014 72.3052 86.1117 73.5523 87.744" stroke="#E07E61" stroke-width="3.2515" stroke-miterlimit="10" stroke-linecap="round"/>
<path d="M116.677 83.7483C120.474 77.9935 124.876 81.692 124.876 85.7428C124.876 91.609 118.499 96.662 114.856 92.452C111.212 88.239 116.677 83.7483 116.677 83.7483Z" fill="#F1B69A"/>
<path d="M117.507 86.4068C119.87 82.0014 123.135 86.1117 121.888 87.744" stroke="#E07E61" stroke-width="3.2515" stroke-miterlimit="10" stroke-linecap="round"/>
<path d="M97.701 106.349C82.7041 106.344 73.8359 89.986 77.3412 73.1907C80.2289 59.351 115.208 59.3557 118.096 73.1907C121.601 89.986 112.707 106.354 97.701 106.349Z" fill="#F1B69A"/>
<path opacity="0.5" d="M95.71 89.534C97.253 90.27 100.729 88.639 100.803 89.534C100.875 90.429 98.958 91.222 98.257 91.222C97.556 91.222 95.71 89.534 95.71 89.534Z" fill="#F1B69A"/>
<path d="M95.76 85.0216C93.571 89.744 96.842 90.66 97.72 90.774" stroke="#E07E61" stroke-width="3.2515" stroke-miterlimit="10" stroke-linecap="round"/>
<path d="M92.483 93.34C98.273 94.449 102.863 93.525 104.719 92.045" stroke="#150A08" stroke-width="3.2515" stroke-miterlimit="10" stroke-linecap="round"/>
<path d="M91.79 72.153C90.852 70.0633 85.361 71.0201 84.5833 72.5052C83.806 73.9927 86.377 74.4092 88.284 74.3164C90.192 74.2236 92.386 73.4834 91.79 72.153Z" fill="#D88D48"/>
<path d="M103.431 73.8452C104.368 71.7555 109.86 72.7123 110.637 74.1998C111.415 75.6873 108.844 76.1038 106.937 76.011C105.029 75.9158 102.835 75.1756 103.431 73.8452Z" fill="#D88D48"/>
<path opacity="0.5" d="M96.368 96.189C98.469 96.193 101.478 95.103 101.945 96.189C102.41 97.274 99.847 99.442 98.256 99.287C96.666 99.133 93.971 96.181 96.368 96.189Z" fill="#F1B69A"/>
<path d="M87.822 80.2045C87.822 81.0351 88.497 81.7111 89.331 81.7111C90.163 81.7111 90.841 81.0375 90.841 80.2045C90.841 79.3715 90.166 78.698 89.331 78.698C88.497 78.698 87.822 79.3715 87.822 80.2045Z" fill="#150A08"/>
<path d="M107.618 80.2045C107.618 81.0351 106.944 81.7111 106.109 81.7111C105.277 81.7111 104.6 81.0375 104.6 80.2045C104.6 79.3715 105.274 78.698 106.109 78.698C106.944 78.698 107.618 79.3715 107.618 80.2045Z" fill="#150A08"/>
<path d="M87.484 58.0467C87.119 67.6286 109.009 72.7718 114.813 71.8888C120.617 71.0034 122.363 63.4612 113.254 57.2732C104.147 51.0852 87.646 53.7913 87.484 58.0467Z" fill="#D88D48"/>
</g>
</svg>
